<svg id="Capa_1" enable-background="new 0 0 512 512" height="512" viewBox="0 0 512 512" width="512" xmlns="http://www.w3.org/2000/svg"><g><g><path d="m412.677 126.688h-2.63c-1.787 0-3.258-1.428-3.282-3.215-.126-9.376-1.756-18.439-4.661-26.97-12.341-36.242-49.732-60.494-90.443-60.494-33.68 0-60.624 17.951-76.954 44.752-1.056 1.734-3.395 2.089-4.941.774-10.887-9.26-25.224-15.966-40.637-15.966-34.473 0-61.596 29.27-61.596 63.743.002 2.206-2.063 3.841-4.189 3.255-8.138-2.243-16.729-3.391-25.615-3.242-48.671.819-87.551 37.352-88.269 86.024-.28 18.954 3.308 37.253 12.99 51.92 16.223 24.575 44.086 40.789 75.736 40.789h315.63c50.313 0 91.056-40.973 90.682-91.372-.371-50.003-41.818-89.998-91.821-89.998z" fill="#bae6ef"/><g><path d="m266.375 194.354h-14.755l-4.995 1c-5.523 0-10 4.477-10 10v8c0 5.523 4.477 10 10 10l4.995 1h14.755c5.523 0 10-4.477 10-10v-10c0-5.523-4.477-10-10-10z" fill="#ffd163"/><path d="m251.62 194.351v30h-6c-5.52 0-10-4.47-10-10v-10c0-5.52 4.48-10 10-10z" fill="#ffb65f"/></g><path d="m402.51 97.75c-16.89-24.1-45.23-40.1-76.8-40.1-33.68 0-63.17 17.9-79.5 44.7-1.06 1.73-3.4 2.09-4.94.77-10.89-9.26-24.99-14.85-40.4-14.85-34.47 0-62.42 27.94-62.42 62.42v.04c0 2.21-2.06 3.8-4.19 3.21-8.14-2.24-16.73-3.39-25.61-3.24-48.67.82-88.42 40.63-89.14 89.3-.15 10.3 1.41 20.21 4.44 29.46-10.61-15.08-16.73-33.55-16.44-53.46.72-48.67 40.47-88.48 89.14-89.3 8.88-.15 17.47 1 25.61 3.24 2.13.59 4.19-1 4.19-3.21v-.04c0-34.48 27.95-62.42 62.42-62.42 15.41 0 29.51 5.59 40.4 14.85 1.54 1.32 3.88.96 4.94-.77 16.33-26.8 45.82-44.7 79.5-44.7 41.18 0 76.86 27.22 88.8 64.1z" fill="#94d8e6"/><g><g><path d="m332.194 478.353h-137.781l-14.367-.765c-22.511 0-40.128-17.37-40.128-39.881l.165-14.202c0-10.974 7.396-20.698 18.357-21.214 11.703-.551 21.365 8.775 21.365 20.357v10.869c0 2.251 1.825 4.076 4.076 4.076h144.237c.657 0 1.277-.155 1.827-.431 1.334-.67 2.77-1.7 2.77-3.294l-.239-10.237c0-10.974 8.433-20.416 19.394-20.932.201-.009.119-.423.318-.426 11.431-.211 20.765 8.993 20.765 20.376v14.945c.001 22.51-18.248 40.759-40.759 40.759z" fill="#ffd163"/></g></g><g><g fill="#ffb65f"><path d="m352.19 402.28v31.24c0 2.25-1.82 4.07-4.07 4.07h-20c2.25 0 4.07-1.82 4.07-4.07v-10.3c0-10.97 8.44-20.41 19.4-20.93.2-.01.4-.02.6-.01z"/><path d="m199.81 478.35h-20c-22.52 0-40.76-18.25-40.76-40.76v-14.37c0-10.97 8.43-20.41 19.39-20.93.21-.01.41-.02.61-.01v35.31c0 22.51 18.24 40.76 40.76 40.76z"/></g></g><g><path d="m266.375 134.354h-14.755l-4.995 1c-5.523 0-10 4.477-10 10v8c0 5.523 4.477 10 10 10l4.995 1h14.755c5.523 0 10-4.477 10-10v-10c0-5.523-4.477-10-10-10z" fill="#ffd163"/><path d="m251.62 134.351v30h-6c-5.52 0-10-4.47-10-10v-10c0-5.52 4.48-10 10-10z" fill="#ffb65f"/></g><path d="m313.076 298.353h-33.701c-1.657 0-3-1.343-3-3v-30c0-5.523-4.477-10-10-10h-14.755l-5.18.647c-5.523 0-10 4.477-10 10l-.083 29.605c0 .828-1.069 1.325-1.611 1.868-.543.543-1.293.879-2.121.879h-33.701c-.848 0-1.667.07-2.455.203-10.622 1.795-13.689 14.991-5.855 23.307l38.56 40.211c10.166 10.79 26.104 17.425 39.095 12.704 5.083-1.847 9.829-4.882 13.807-9.104l41.19-43.722c8.416-8.931 2.083-23.598-10.19-23.598z" fill="#ffd163"/><g fill="#ffb65f"><path d="m251.62 255.35v39.84c0 1.66-1.34 3-3 3h-15.03c1.18-.4 2.03-1.52 2.03-2.84v-30c0-5.52 4.48-10 10-10z"/><path d="m268.27 374.78c-12.99 4.72-28.18 1.69-38.35-9.11l-41.19-43.72c-7.83-8.31-2.88-21.61 7.74-23.39z"/></g></g><g><path d="m47.754 149.642c1.443 0 2.901-.416 4.187-1.283 13.333-8.994 28.836-13.89 44.831-14.159 7.948-.138 15.851.866 23.495 2.973 3.287.905 6.722.244 9.427-1.817 2.708-2.065 4.26-5.211 4.256-8.667 0-30.283 24.637-54.919 54.919-54.919 13.009 0 25.63 4.642 35.54 13.069 2.418 2.057 5.597 2.948 8.721 2.445 3.113-.5 5.84-2.333 7.483-5.03 15.682-25.739 43.007-41.105 73.094-41.105 17.033 0 33.584 5.056 47.865 14.621 3.442 2.305 8.101 1.384 10.405-2.058 2.305-3.441 1.384-8.1-2.058-10.405-16.759-11.225-36.197-17.158-56.213-17.158-33.77 0-64.578 16.468-83.332 44.29-11.978-8.844-26.542-13.668-41.507-13.668-36.777 0-67.013 28.54-69.722 64.683-7.42-1.622-15.016-2.381-22.628-2.25-18.905.318-37.22 6.1-52.966 16.721-3.434 2.316-4.34 6.978-2.024 10.412 1.451 2.145 3.818 3.305 6.227 3.305z"/><path d="m414.116 119.198c-1.013-17.605-6.93-34.614-17.231-49.433-2.365-3.401-7.037-4.242-10.439-1.877-3.401 2.364-4.241 7.038-1.877 10.439 9.399 13.52 14.481 29.166 14.697 45.246.079 5.853 4.915 10.614 10.781 10.614h2.63c46.157 0 83.983 37.033 84.321 82.553.166 22.345-8.408 43.381-24.143 59.233-15.736 15.853-36.704 24.584-59.04 24.584h-82.76c-3.92-6.06-10.522-9.705-17.979-9.705h-29.201v-25.5c0-9.649-7.851-17.5-17.5-17.5h-20.75c-9.649 0-17.5 7.851-17.5 17.5v25.5h-29.201c-7.456 0-14.058 3.645-17.978 9.705h-82.76c-22.452 0-43.496-8.809-59.256-24.803-15.756-15.99-24.251-37.171-23.919-59.641.237-16.093 5.158-31.685 14.23-45.089 2.322-3.43 1.423-8.093-2.007-10.415-3.429-2.322-8.093-1.424-10.415 2.007-10.714 15.83-16.526 34.252-16.806 53.275-.392 26.518 9.635 51.516 28.233 70.391 18.602 18.878 43.44 29.275 69.941 29.275h79.434c.631 4.215 2.536 8.227 5.656 11.538l41.19 43.722c8.272 8.78 19.471 13.616 31.534 13.616 12.063 0 23.263-4.836 31.536-13.616l4.47-4.745c2.84-3.015 2.698-7.762-.317-10.602-3.016-2.84-7.762-2.698-10.602.317l-4.469 4.745c-5.408 5.741-12.73 8.902-20.617 8.902s-15.209-3.162-20.617-8.902l-41.19-43.722c-2.719-2.886-1.634-6.113-1.236-7.034s2.002-3.923 5.967-3.923h33.701c5.79 0 10.5-4.71 10.5-10.5v-30c0-1.378 1.122-2.5 2.5-2.5h20.75c1.378 0 2.5 1.122 2.5 2.5v30c0 5.79 4.71 10.5 10.5 10.5h33.701c3.965 0 5.57 3.003 5.968 3.924.397.92 1.482 4.147-1.236 7.033l-12.6 13.374c-2.84 3.015-2.699 7.762.316 10.602s7.761 2.698 10.602-.316l12.6-13.374c3.119-3.311 5.025-7.323 5.656-11.538h79.434c26.364 0 51.112-10.305 69.686-29.017 18.572-18.71 28.692-43.538 28.497-69.911-.399-53.254-44.174-96.668-97.885-97.432z"/><path d="m351.236 394.799c-14.883.702-26.542 13.187-26.542 28.424v6.87h-137.389v-7.445c.323-14.56-13.169-28.9-29.219-27.849-14.883.702-26.542 13.187-26.542 28.424v14.37c0 26.61 21.649 48.26 48.26 48.26h27.237c4.142 0 7.5-3.358 7.5-7.5s-3.358-7.5-7.5-7.5h-27.237c-18.34 0-33.26-14.92-33.26-33.26v-14.37c0-7.093 5.494-13.123 12.248-13.441 5.896-.239 13.414 4.519 13.513 12.865v10.869c0 6.383 5.193 11.576 11.576 11.576h144.237c6.383 0 11.576-5.193 11.576-11.576v-10.293c0-7.093 5.494-13.123 12.248-13.441 5.894-.239 13.415 4.519 13.513 12.865v14.945c0 18.339-14.92 33.26-33.26 33.26h-90.13c-4.142 0-7.5 3.358-7.5 7.5s3.358 7.5 7.5 7.5h90.13c26.611 0 48.26-21.649 48.26-48.26v-14.945c.321-14.559-13.166-28.9-29.219-27.848z"/><path d="m266.375 186.853h-20.75c-9.649 0-17.5 7.851-17.5 17.5v10c0 9.649 7.851 17.5 17.5 17.5h20.75c9.649 0 17.5-7.851 17.5-17.5v-10c0-9.65-7.851-17.5-17.5-17.5zm2.5 27.5c0 1.378-1.122 2.5-2.5 2.5h-20.75c-1.378 0-2.5-1.122-2.5-2.5v-10c0-1.378 1.122-2.5 2.5-2.5h20.75c1.378 0 2.5 1.122 2.5 2.5z"/><path d="m283.875 144.353c0-9.649-7.851-17.5-17.5-17.5h-20.75c-9.649 0-17.5 7.851-17.5 17.5v10c0 9.649 7.851 17.5 17.5 17.5h20.75c9.649 0 17.5-7.851 17.5-17.5zm-15 10c0 1.378-1.122 2.5-2.5 2.5h-20.75c-1.378 0-2.5-1.122-2.5-2.5v-10c0-1.378 1.122-2.5 2.5-2.5h20.75c1.378 0 2.5 1.122 2.5 2.5z"/></g></g></svg>